# xmcd CD database file
#
# Track frame offsets:
#	150
#	15075
#	25512
#	37000
#	48900
#	64612
#	78700
#	91275
#	101725
#	115925
#	128625
#	139525
#	151987
#	161012
#	170962
#	187325
#
# Disc length: 2593 seconds
#
# Revision: 1
# Processed by: cddbd v1.5.2PL0 Copyright (c) Steve Scherf et al.
# Submitted via: CDex 1.51
#
DISCID=cd0a1f10
DTITLE=Jo Bohnsack - Happy little Joe
DYEAR=1990
DGENRE=Blues
TTITLE0=Will it go round in circles
TTITLE1=Cute little boogie
TTITLE2=Do my woman think of me
TTITLE3=Ham boogie
TTITLE4=I don't know
TTITLE5=Goin' to New Orleans
TTITLE6=Remember Dr George
TTITLE7=The legend of NC
TTITLE8=G-Runner
TTITLE9=Move to Louisiana
TTITLE10=Boogie in the hall
TTITLE11=Improvisation
TTITLE12=Pony boy
TTITLE13='fo day blues
TTITLE14=Mad about you
TTITLE15=Cut the blues
EXTD=YEAR: 1990
EXTT0=
EXTT1=
EXTT2=
EXTT3=
EXTT4=
EXTT5=
EXTT6=
EXTT7=
EXTT8=
EXTT9=
EXTT10=
EXTT11=
EXTT12=
EXTT13=
EXTT14=
EXTT15=
PLAYORDER=
